<svg width="182" height="141" viewBox="0 0 182 141" fill="none" xmlns="http://www.w3.org/2000/svg">
<path fill-rule="evenodd" clip-rule="evenodd" d="M35.1599 22.3161C34.3302 22.7984 33.9549 22.8283 33.6729 23.0777C18.758 43.6717 12.4522 66.567 17.1005 91.8035C18.2585 98.1791 21.0435 104.122 25.0963 109.397C33.6847 120.778 48.0427 125.042 61.4051 120.269C68.3835 117.821 74.6296 114.259 78.9589 108.013C78.0441 104.644 77.0199 101.321 76.4175 98.0784C75.4603 92.7837 76.3003 87.7616 79.7653 83.4379C82.2586 80.1752 85.5449 78.7783 88.0441 79.7893C91.3242 81.1163 92.6305 84.1894 92.2794 87.319C91.8004 91.6692 90.79 95.9862 89.5767 100.13C88.7733 102.804 87.2822 105.382 86.0102 107.866C93.1441 119.477 107.105 119.762 118.934 108.644C118.626 106.702 118.271 104.65 118.072 102.661C117.51 95.2541 119.464 88.5924 125.057 83.4937C127.203 81.5448 129.802 80.0514 132.973 81.4249C135.362 82.4825 136.669 85.5556 136.222 89.3737C135.427 95.4134 132.601 100.632 129.259 105.551C128.036 107.237 126.813 108.923 125.543 110.5C135.898 128.775 158.881 135.074 172.485 120.22C172.982 121.694 173.605 122.854 173.447 123.699C173.226 124.7 172.207 125.652 171.315 126.29C162.75 132.004 153.629 134.585 143.616 130.807C136.103 128.04 129.875 123.431 124.479 117.431C123.731 116.583 122.982 115.735 122.124 114.933C122.078 114.823 121.812 114.807 121.234 114.664C120.295 115.193 119.09 115.705 117.978 116.436C104.279 124.981 94.9311 124.289 82.3078 113.457C81.1798 114.455 79.8328 115.546 78.642 116.7C71.42 123.139 63.0784 126.944 53.3209 127.722C37.4494 129.026 23.3816 120.881 15.9578 106.155C11.9111 98.156 9.97626 89.6484 9.66832 80.7085C9.01408 59.0872 14.6402 39.4612 28.3277 22.3694C28.9708 21.4482 29.7701 20.5901 30.4132 19.6688C30.4761 19.5125 30.4923 19.2464 30.5411 18.4482C26.4433 19.1533 23.0778 20.9727 19.6657 22.6822C16.3165 24.2354 12.951 26.0547 9.31979 27.8574C8.43547 24.8641 9.50257 23.1147 11.0849 21.6646C12.9959 20.0748 14.8136 18.2655 16.9578 17.2245C22.7799 14.4906 28.7582 11.8198 34.9232 9.58806C39.7735 7.91508 42.1611 9.88062 41.7125 14.6067C40.6735 24.6375 39.5248 34.7148 38.3762 44.7922C38.1692 46.4352 37.6498 47.9518 37.098 50.0005C33.9903 48.4706 34.1202 46.3421 34.1872 44.3699C34.7353 37.1395 34.9547 30.0487 35.1599 22.3161ZM131.086 86.1144C123.947 90.3151 121.289 97.1464 123.853 104.091C127.493 98.6563 131.053 93.6441 131.086 86.1144ZM86.8287 84.8413C81.0187 89.1251 79.8175 94.819 83.3206 101.235C85.9904 95.953 88.2058 91.1239 86.8287 84.8413Z" fill="white"/>
</svg>
