<svg width="24" height="24" viewBox="0 0 24 24" xmlns="http://www.w3.org/2000/svg">
<g>
<path d="M12.8284 22C10.6905 22 8.58509 21.3054 6.86835 19.9492C4.56855 18.163 3.17572 15.4506 3.01376 12.4736C2.81941 8.86809 4.69812 5.32876 7.74292 3.44332C9.49206 2.38483 11.4032 1.88866 13.4114 2.02097C13.8325 2.05405 14.1888 2.31867 14.3184 2.7156C14.448 3.11254 14.3832 3.54255 14.0916 3.84025C12.3749 5.59338 11.6623 8.1073 12.1805 10.522C12.9579 14.1275 16.2619 16.5752 19.8573 16.2114C20.2784 16.1783 20.6671 16.3768 20.8615 16.7406C21.0558 17.1045 21.0558 17.5345 20.7967 17.8653C19.3715 19.8499 17.2984 21.2392 14.9338 21.7685C14.2212 21.9338 13.5086 22 12.8284 22ZM12.4073 3.50947C11.0468 3.57563 9.7188 3.97256 8.48792 4.73335C5.8966 6.32109 4.30942 9.33118 4.47138 12.3743C4.60094 14.9213 5.79943 17.2368 7.74292 18.7584C9.6864 20.28 12.2129 20.8423 14.6099 20.313C16.3267 19.9492 17.8491 19.023 19.0152 17.6999C15.0634 17.6668 11.5975 14.8221 10.7229 10.8197C10.1723 8.23961 10.7877 5.5603 12.4073 3.50947Z" fill="#232323"/>
</g>
</svg>
