<svg width="24" height="24" viewBox="0 0 24 24" xmlns="http://www.w3.org/2000/svg">
<g>
<path d="M12 4.23751C12.45 4.23751 12.8625 3.86251 12.8625 3.37501V1.50001C12.8625 1.05001 12.4875 0.637512 12 0.637512C11.55 0.637512 11.1375 1.01251 11.1375 1.50001V3.41251C11.175 3.86251 11.55 4.23751 12 4.23751Z" fill="#e0ddcf"/>
<path fill-rule="evenodd" clip-rule="evenodd" d="M12 6.90002C9.18752 6.90002 6.90002 9.18752 6.90002 12C6.90002 14.8125 9.18752 17.1 12 17.1C14.8125 17.1 17.1 14.8125 17.1 12C17.1 9.18752 14.8125 6.90002 12 6.90002ZM12 15.4125C10.125 15.4125 8.58752 13.875 8.58752 12C8.58752 10.125 10.125 8.58752 12 8.58752C13.875 8.58752 15.4125 10.125 15.4125 12C15.4125 13.875 13.875 15.4125 12 15.4125Z" fill="#e0ddcf"/>
<path d="M11.1375 20.625C11.1375 20.1375 11.55 19.7625 12 19.7625C12.45 19.7625 12.8625 20.1375 12.8625 20.5875V22.5C12.8625 22.9875 12.45 23.3625 12 23.3625C11.5125 23.3625 11.1375 22.95 11.1375 22.5V20.625Z" fill="#e0ddcf"/>
<path d="M18.1125 6.75004C18.3375 6.75004 18.5625 6.67504 18.7125 6.48754L19.9125 5.28754C20.25 4.95004 20.25 4.42504 19.9125 4.08754C19.575 3.75004 19.05 3.75004 18.7125 4.08754L17.5125 5.28754C17.175 5.62504 17.175 6.15004 17.5125 6.48754C17.6625 6.67504 17.8875 6.75004 18.1125 6.75004Z" fill="#e0ddcf"/>
<path d="M4.12501 18.675L5.32501 17.5125C5.62501 17.175 6.18751 17.175 6.52501 17.475C6.86251 17.8125 6.86251 18.3375 6.52501 18.675L5.32501 19.875C5.17501 20.0625 4.95001 20.1375 4.72501 20.1375C4.50001 20.1375 4.27501 20.025 4.12501 19.875C3.78751 19.5375 3.78751 19.0125 4.12501 18.675Z" fill="#e0ddcf"/>
<path d="M22.5 11.175H20.5875C20.1375 11.175 19.725 11.55 19.725 12.0375C19.725 12.4875 20.1 12.9 20.5875 12.9H22.5C22.95 12.9 23.3625 12.525 23.3625 12.0375C23.3625 11.55 22.95 11.175 22.5 11.175Z" fill="#e0ddcf"/>
<path d="M3.37501 11.1375C3.86251 11.1375 4.23751 11.55 4.23751 12C4.23751 12.45 3.86251 12.8625 3.41251 12.8625H1.50001C1.01251 12.8625 0.637512 12.45 0.637512 12C0.637512 11.5125 1.05001 11.1375 1.50001 11.1375H3.37501Z" fill="#e0ddcf"/>
<path d="M18.675 17.5125C18.3375 17.175 17.8125 17.175 17.475 17.5125C17.1375 17.85 17.1375 18.375 17.475 18.7125L18.675 19.9125C18.825 20.0625 19.05 20.175 19.275 20.175C19.5 20.175 19.725 20.1 19.875 19.9125C20.2125 19.575 20.2125 19.05 19.875 18.7125L18.675 17.5125Z" fill="#e0ddcf"/>
<path d="M4.12501 4.12501C4.46251 3.78751 4.98751 3.78751 5.32501 4.12501L6.52501 5.32501C6.86251 5.66251 6.86251 6.18751 6.52501 6.52501C6.37501 6.71251 6.15001 6.78751 5.92501 6.78751C5.70001 6.78751 5.47501 6.67501 5.32501 6.52501L4.12501 5.32501C3.78751 4.98751 3.78751 4.46251 4.12501 4.12501Z" fill="#e0ddcf"/>
</g>
</svg>
